<?xml version="1.0" encoding="iso-8859-1"?>
<!-- Generator: Adobe Illustrator 19.0.0, SVG Export Plug-In . SVG Version: 6.00 Build 0)  -->
<svg version="1.1" id="Layer_1" xmlns="http://www.w3.org/2000/svg" xmlns:xlink="http://www.w3.org/1999/xlink" x="0px" y="0px"
	 viewBox="0 0 371.721 371.721" style="enable-background:new 0 0 371.721 371.721;" xml:space="preserve">
<g>
	<g>
		<g>
			<path d="M307.349,153.193v-107c0-4.418-3.582-8-8-8h-227c-4.418,0-8,3.582-8,8v107c0,4.418,3.582,8,8,8h227
				C303.768,161.193,307.349,157.611,307.349,153.193z M291.349,145.193h-211v-91h211V145.193z"/>
			<path d="M370.661,355.545l-59.045-121.841c-1.337-2.759-4.133-4.511-7.199-4.511H248.85v-34h84.5c4.418,0,8-3.582,8-8v-175
				c0-4.418-3.582-8-8-8h-295c-4.418,0-8,3.582-8,8v175c0,4.418,3.582,8,8,8h84.5v34H67.283c-3.066,0-5.862,1.752-7.199,4.511
				L0.8,356.038c-1.201,2.479-1.042,5.402,0.42,7.737c1.462,2.335,4.024,3.752,6.779,3.752h72.31c0.009,0,0.018,0.002,0.028,0.002
				c0,0,0.016-0.002,0.024-0.002h283.34c0.007,0,0.014,0,0.02,0c4.418,0,8-3.582,8-8
				C371.72,358.077,371.335,356.717,370.661,355.545z M46.35,179.193l0-159h279v159h-84.5h-110H46.35z M232.85,195.193v34h-94v-34
				H232.85z M74.324,351.527H20.765l51.531-106.334h32.89L74.324,351.527z M90.985,351.527l30.862-106.333h177.557l51.53,106.333
				H90.985z"/>
			<circle cx="71.309" cy="290.443" r="8"/>
			<path d="M283.112,263.193h-18.553c-4.418,0-8,3.582-8,8c0,4.418,3.582,8,8,8h13.54l18.577,38.333h-32.117c-4.418,0-8,3.582-8,8
				c0,4.418,3.582,8,8,8h44.883c2.755,0,5.316-1.417,6.779-3.752c1.463-2.335,1.622-5.258,0.42-7.737l-26.33-54.333
				C288.974,264.945,286.178,263.193,283.112,263.193z"/>
			<path d="M201.949,261.771c-3.179-3.069-8.243-2.98-11.312,0.199l-56,58c-3.069,3.178-2.98,8.243,0.199,11.312
				c1.553,1.499,3.555,2.245,5.556,2.245c2.095,0,4.187-0.817,5.756-2.443l56-58C205.216,269.904,205.127,264.84,201.949,261.771z"
				/>
			<path d="M202.261,307.274l-14,2c-4.374,0.625-7.413,4.677-6.788,9.051c0.57,3.99,3.992,6.87,7.909,6.87
				c0.377,0,0.758-0.026,1.142-0.082l14-2c4.374-0.625,7.413-4.677,6.788-9.051C210.687,309.688,206.637,306.648,202.261,307.274z"
				/>
		</g>
	</g>
</g>
<g>
</g>
<g>
</g>
<g>
</g>
<g>
</g>
<g>
</g>
<g>
</g>
<g>
</g>
<g>
</g>
<g>
</g>
<g>
</g>
<g>
</g>
<g>
</g>
<g>
</g>
<g>
</g>
<g>
</g>
</svg>
